<?xml version="1.0" encoding="UTF-8" standalone="no"?>
<svg
   xmlns:dc="http://purl.org/dc/elements/1.1/"
   xmlns:cc="http://creativecommons.org/ns#"
   xmlns:rdf="http://www.w3.org/1999/02/22-rdf-syntax-ns#"
   xmlns:svg="http://www.w3.org/2000/svg"
   xmlns="http://www.w3.org/2000/svg"
   xmlns:sodipodi="http://sodipodi.sourceforge.net/DTD/sodipodi-0.dtd"
   xmlns:inkscape="http://www.inkscape.org/namespaces/inkscape"
   version="1.0"
   x="0px"
   y="0px"
   width="30px"
   height="30px"
   viewBox="0 0 30 30"
   enable-background="new 0 0 30 30"
   xml:space="preserve"
   id="svg2"
   inkscape:version="0.91 r13725"
   sodipodi:docname="menu_icon.svg"><metadata
     id="metadata14"><rdf:RDF><cc:Work
         rdf:about=""><dc:format>image/svg+xml</dc:format><dc:type
           rdf:resource="http://purl.org/dc/dcmitype/StillImage" /><dc:title></dc:title></cc:Work></rdf:RDF></metadata><defs
     id="defs12" /><sodipodi:namedview
     pagecolor="#ffffff"
     bordercolor="#666666"
     borderopacity="1"
     objecttolerance="10"
     gridtolerance="10"
     guidetolerance="10"
     inkscape:pageopacity="0"
     inkscape:pageshadow="2"
     inkscape:window-width="661"
     inkscape:window-height="480"
     id="namedview10"
     showgrid="false"
     inkscape:zoom="7.8666667"
     inkscape:cx="15"
     inkscape:cy="15"
     inkscape:window-x="393"
     inkscape:window-y="118"
     inkscape:window-maximized="0"
     inkscape:current-layer="svg2" /><path
     d="m 24.932204,8.5 c 0,0.553 -0.371238,1 -0.830509,1 L 5.8305085,9.5 C 5.3712373,9.5 5,9.053 5,8.5 l 0,0 c 0,-0.553 0.3712373,-1 0.8305085,-1 l 18.2711865,0 c 0.459271,0 0.830509,0.447 0.830509,1 l 0,0 z"
     id="path4"
     inkscape:connector-curvature="0" /><path
     d="m 24.932203,15.5 c 0,0.553 -0.371237,1 -0.830508,1 l -18.2711865,0 C 5.3712374,16.5 5,16.053 5,15.5 l 0,0 c 0,-0.553 0.3712374,-1 0.8305085,-1 l 18.2711865,0 c 0.459271,0 0.830508,0.447 0.830508,1 l 0,0 z"
     id="path6"
     inkscape:connector-curvature="0" /><path
     d="m 25.09322,22.5 c 0,0.553 -0.375972,1 -0.841101,1 l -18.5042376,0 c -0.4651293,0 -0.8411017,-0.447 -0.8411017,-1 l 0,0 c 0,-0.553 0.3759724,-1 0.8411017,-1 l 18.5042376,0 c 0.465129,0 0.841101,0.447 0.841101,1 l 0,0 z"
     id="path8"
     inkscape:connector-curvature="0" /></svg>